<svg width="80" height="81" fill="none" xmlns="http://www.w3.org/2000/svg"><g clip-path="url(#a)"><rect width="80" height="80.389" rx="40" fill="#fff"/><path d="M37.126.124c-6.295.708-10.131 1.79-14.951 4.21-5.41 2.715-10.328 6.787-13.948 11.567-13.023 17.174-10.308 41.41 6.178 55.28 5.055 4.248 11.154 7.2 17.823 8.615 3.324.689 9.737.886 13.16.394 6.295-.925 11.745-2.99 16.84-6.433 9.757-6.57 16.111-16.938 17.567-28.702.315-2.459.256-7.711-.099-10.249C77.257 17.24 63.468 3.173 46.077.498c-1.907-.295-7.573-.531-8.95-.374ZM33.585 20.17c.059 4.426.177 8.223.275 8.42.394.806 1.83.983 2.46.314.216-.235.452-.786.51-1.239.08-.452.1-4.033.06-7.947l-.06-7.161.709.118c1.043.177 2.498.865 2.616 1.259.06.177.236 1.574.413 3.089 1.24 11.252 1.2 15.108-.196 17.527-.65 1.122-1.515 1.928-3.404 3.168-1.75 1.18-2.203 1.77-2.203 2.97 0 .433.354 3.187.767 6.158 1.18 8.223 1.2 8.498 1.2 12.118 0 4.721-.63 7.2-2.262 8.773-1.593 1.535-4.092 1.26-5.449-.61-2.105-2.95-2.203-9.462-.315-20.872.315-2.006.61-4.308.61-5.114.04-1.83-.157-2.145-2.184-3.482-2.164-1.417-3.501-2.97-4.013-4.682-.433-1.456-.53-3.856-.354-7.594.177-3.324.354-5.43.925-10.603.098-.905.197-1.102.728-1.416.334-.217.964-.473 1.396-.59a21.4 21.4 0 0 0 1.141-.296c.315-.098.335.354.335 7.692 0 6.452.059 7.889.295 8.341.492.964 1.711 1.121 2.479.295l.472-.511.059-8.145.059-8.164 1.416.06 1.416.059.099 8.065Zm15.974-7.121c2.498 1.593 4.485 3.934 5.842 6.865 1.2 2.538 1.613 4.348 1.731 7.554.158 3.994-.235 5.686-2.695 11.784-1.986 4.898-2.104 6.02-1.18 10.76.866 4.348 1.043 6.65.807 10.23-.394 5.528-1.495 8.518-3.148 8.46-1.24-.04-1.888-.866-2.498-3.207-.433-1.653-.59-12.197-.512-35.961.04-15.305.079-17.35.335-17.252.157.059.767.413 1.318.767Z" fill="#000"/></g><rect x=".5" y=".5" width="79" height="79.389" rx="39.5" stroke="#fff"/><defs><clipPath id="a"><rect width="80" height="80.389" rx="40" fill="#fff"/></clipPath></defs></svg>